<svg style="position: absolute; width: 0; height: 0; overflow: hidden;" version="1.1" xmlns="http://www.w3.org/2000/svg" xmlns:xlink="http://www.w3.org/1999/xlink">
<defs>
<symbol id="icon-new" viewBox="0 0 30 32">
<title>new</title>
<path d="M5.541 6.926h19.394v1.385h-19.394v-1.385z"></path>
<path d="M5.541 12.468h19.394v1.385h-19.394v-1.385z"></path>
<path d="M5.541 18.009h19.394v1.385h-19.394v-1.385z"></path>
<path d="M5.541 23.55h11.082v1.385h-11.082v-1.385z"></path>
<path d="M2.771 32h-2.771v-32h30.476v31.861h-2.771v-29.091h-24.935v29.229z"></path>
</symbol>
<symbol id="icon-promo" viewBox="0 0 27 32">
<title>promo</title>
<path d="M27.077 32h-27.077v-27.077h27.077v27.077zM2.462 29.538h22.154v-22.154h-22.154v22.154z"></path>
<path d="M2.462 20.923h8.615v1.231h-8.615v-1.231z"></path>
<path d="M16 20.923h8.615v1.231h-8.615v-1.231z"></path>
<path d="M2.462 14.769h8.615v1.231h-8.615v-1.231z"></path>
<path d="M16 14.769h8.615v1.231h-8.615v-1.231z"></path>
<path d="M9.846 6.154h1.231v24.615h-1.231v-24.615z"></path>
<path d="M16 6.154h1.231v24.615h-1.231v-24.615z"></path>
<path d="M13.538 7.385c-0.68 0-1.231-0.551-1.231-1.231v-4.923c0-0.68 0.551-1.231 1.231-1.231s1.231 0.551 1.231 1.231v4.923c0 0.68-0.551 1.231-1.231 1.231z"></path>
<path d="M13.538 7.385c-0.012 0-0.027 0.001-0.041 0.001-0.453 0-0.85-0.245-1.063-0.61l-2.465-4.314c-0.051-0.13-0.081-0.281-0.081-0.439 0-0.68 0.551-1.231 1.231-1.231 0.378 0 0.715 0.17 0.941 0.438l2.463 4.31c0.109 0.18 0.173 0.397 0.173 0.63 0 0.473-0.267 0.884-0.659 1.090l-0.499 0.003z"></path>
<path d="M13.538 7.385h-0.615l-4.308-2.462c-0.467-0.182-0.791-0.628-0.791-1.15 0-0.68 0.551-1.231 1.231-1.231 0.302 0 0.579 0.109 0.793 0.29l4.306 2.46c0.232 0.224 0.376 0.538 0.376 0.885 0 0.595-0.422 1.091-0.983 1.206z"></path>
<path d="M13.538 7.385h-0.615c-0.398-0.209-0.666-0.62-0.666-1.093 0-0.232 0.064-0.45 0.176-0.635l2.458-4.302c0.182-0.467 0.628-0.791 1.15-0.791 0.68 0 1.231 0.551 1.231 1.231 0 0.302-0.109 0.579-0.29 0.793l-2.46 4.306c-0.227 0.3-0.583 0.492-0.985 0.492z"></path>
<path d="M13.538 7.385c-0.025 0.002-0.055 0.003-0.085 0.003-0.68 0-1.231-0.551-1.231-1.231 0-0.487 0.283-0.908 0.693-1.107l4.315-2.465c0.13-0.051 0.281-0.081 0.439-0.081 0.68 0 1.231 0.551 1.231 1.231 0 0.378-0.17 0.715-0.438 0.941l-4.31 2.463h-0.615z"></path>
</symbol>
<symbol id="icon-cat-default" viewBox="0 0 27 32">
<title>cat-default</title>
<path d="M14.632 19.985v5.472h1.19v-5.71c0-0.194-0.093-0.366-0.236-0.475l-4.284-3.332c0.341-0.514 0.545-1.146 0.545-1.825 0-0.238-0.025-0.471-0.073-0.695-0.191-1.005-0.75-1.876-1.533-2.469l-5.482-4.29-0.714 0.952 5.472 4.283c0.555 0.431 0.944 1.054 1.068 1.767 0.042 0.171 0.065 0.347 0.065 0.529 0 0.479-0.157 0.921-0.423 1.278l-0.472 0.589c-0.458 0.499-1.114 0.811-1.843 0.811-0.67 0-1.278-0.264-1.727-0.693l-5.471-4.401-0.714 0.952 5.472 4.283c0.673 0.52 1.529 0.833 2.458 0.833 0.014 0 0.028-0 0.042-0s0.031 0 0.049 0c0.966 0 1.837-0.412 2.445-1.069z"></path>
<path d="M21.413 23.316l-4.283 1.071 3.093-3.093-0.833-0.833-3.45 3.45 0.714 0.714 0.238 0.833-0.238 0.833-0.714 0.595-0.833 0.238-0.833-0.238-0.595-0.595-0.238-0.833 0.238-0.833 0.714-0.714-3.45-3.569-0.833 0.833 3.093 3.093-4.283-1.19-0.238 1.19 4.164 1.19-4.164 1.071 0.238 1.19 4.164-1.071-3.093 2.974 0.833 0.833 3.093-2.974-1.071 4.164 1.071 0.357 1.19-4.283 1.071 4.283 1.19-0.357-1.071-4.164 2.974 3.093 0.833-0.833-2.974-3.093 4.164 1.19 0.357-1.19-4.164-1.19 4.164-1.071-0.238-1.071z"></path>
<path d="M8.684 0v8.327h1.19v-7.138h15.465v20.223h-4.164v1.19h5.353v-22.602h-17.844z"></path>
<path d="M22.959 4.758h-10.706v4.758h10.706v-4.758zM21.77 8.327h-8.327v-2.379h8.327v2.379z"></path>
</symbol>
<symbol id="icon-cat2" viewBox="0 0 32 32">
<title>cat2</title>
<path d="M26.88 30.72v1.279h-1.28v-1.279h-10.24v1.279h-1.28v-1.279h-5.12v-5.12h-7.040c-0.355 0-0.64-0.287-0.64-0.641v-3.316c-0.744-0.265-1.28-0.968-1.28-1.802v-10.88h1.28v-3.841c0-0.212 0.106-0.413 0.285-0.531l3.84-2.56 0.709 1.064-3.555 2.371v3.498h1.28v10.88c0 0.835-0.536 1.537-1.28 1.802v2.678h6.4v-24.32h23.040v30.72h-5.12zM2.56 10.239h-1.28v9.601c0 0.352 0.287 0.64 0.64 0.64s0.64-0.288 0.64-0.64v-9.601zM30.72 1.28h-20.48v10.24h20.48v-10.24zM30.72 12.8h-20.48v11.52h1.28v1.28h-1.28v3.84h20.48v-16.64zM14.080 19.2h12.8v1.28h-12.8v-1.28zM14.080 16.639h12.8v1.28h-12.8v-1.28zM16.64 23.039h1.28v1.281h1.28v1.28h-1.28v1.28h-1.28v-1.28h-1.28v-1.28h1.28v-1.281zM25.6 25.6h-3.84v-1.28h3.84v1.28zM16.64 3.84c1.413 0 2.56 1.146 2.56 2.56 0 1.413-1.147 2.56-2.56 2.56-1.414 0-2.56-1.147-2.56-2.56 0-1.414 1.146-2.56 2.56-2.56zM16.64 7.679c0.705 0 1.28-0.573 1.28-1.279 0-0.707-0.575-1.281-1.28-1.281s-1.28 0.575-1.28 1.281c0 0.705 0.575 1.279 1.28 1.279zM24.32 3.84c1.414 0 2.56 1.146 2.56 2.56 0 1.413-1.146 2.56-2.56 2.56s-2.56-1.147-2.56-2.56c0-1.414 1.146-2.56 2.56-2.56zM24.32 7.679c0.705 0 1.28-0.573 1.28-1.279 0-0.707-0.575-1.281-1.28-1.281s-1.28 0.575-1.28 1.281c0 0.705 0.575 1.279 1.28 1.279z"></path>
</symbol>
<symbol id="icon-cat3" viewBox="0 0 23 32">
<title>cat3</title>
<path d="M16 21.652v4.493l5.333 1.333v4.52h-20v-4.52l5.333-1.333v-4.493c-3.929-1.779-6.667-5.725-6.667-10.32 0-6.259 5.073-11.333 11.333-11.333 6.259 0 11.333 5.075 11.333 11.333 0 4.595-2.739 8.541-6.667 10.32zM2.667 28.52v2.147h17.333v-2.147l-5.333-1.333v-1.855h-6.667v1.855l-5.333 1.333zM14.667 23.999v-1.832c-1.055 0.323-2.173 0.5-3.333 0.5s-2.279-0.177-3.333-0.5v1.832h6.667zM18.851 4.759l-1.861 1.86c-0.131 0.129-0.301 0.195-0.471 0.195-0.171 0-0.341-0.065-0.472-0.195-0.26-0.261-0.26-0.683 0-0.943l1.861-1.86c-1.603-1.403-3.653-2.3-5.908-2.449v2.632c0 0.369-0.299 0.667-0.667 0.667-0.369 0-0.667-0.297-0.667-0.667v-2.632c-2.256 0.149-4.305 1.047-5.908 2.449l1.861 1.86c0.26 0.26 0.26 0.681 0 0.943-0.131 0.129-0.301 0.195-0.472 0.195s-0.341-0.065-0.471-0.195l-1.861-1.86c-1.403 1.603-2.299 3.652-2.449 5.908h2.633c0.368 0 0.667 0.297 0.667 0.665 0 0.369-0.299 0.667-0.667 0.667h-2.633c0.151 2.256 1.047 4.305 2.449 5.907l1.861-1.859c0.26-0.26 0.681-0.26 0.943 0 0.26 0.261 0.26 0.683 0 0.943l-1.861 1.86c1.76 1.541 4.057 2.484 6.575 2.484s4.815-0.943 6.575-2.484l-1.861-1.86c-0.26-0.26-0.26-0.681 0-0.943 0.26-0.26 0.683-0.26 0.943 0l1.861 1.859c1.403-1.601 2.299-3.651 2.449-5.907h-2.633c-0.369 0-0.667-0.297-0.667-0.667 0-0.368 0.297-0.665 0.667-0.665h2.633c-0.151-2.256-1.047-4.305-2.449-5.908zM13.133 10.476c0.124 0.26 0.2 0.548 0.2 0.856 0 1.105-0.896 2-2 2s-2-0.895-2-2c0-1.104 0.896-1.999 2-1.999 0.308 0 0.596 0.075 0.857 0.2l2.032-2.033c0.26-0.26 0.683-0.26 0.943 0s0.26 0.683 0 0.943l-2.032 2.033zM13.333 17.333h-4v-1.333h4v1.333z"></path>
</symbol>
<symbol id="icon-cat4" viewBox="0 0 44 32">
<title>cat4</title>
<path d="M34.779 20.834v-1.487h8.879v1.487h-8.879zM34.014 17.958l7.688-4.463 0.739 1.288-7.686 4.463-0.74-1.288zM32.66 17.141l4.44-7.73 1.28 0.744-4.44 7.73-1.28-0.744zM31.081 23.065h1.48v8.925h-1.48v-8.925zM16.283 6.371v1.074h-1.48v-1.074c0-1.049-0.995-1.901-2.22-1.901h-6.658v-1.489h6.658c2.041 0 3.7 1.521 3.7 3.389zM28.621 7.445h-9.378v-0.083c0 3.327-2.987 6.033-6.66 6.033h-12.576v-1.487h12.576c2.856 0 5.18-2.039 5.18-4.546v-1.321c0-2.507-2.323-4.546-5.18-4.546h-12.576v-1.487h12.576c3.672 0 6.66 2.706 6.66 6.033v-0.083h9.988c0.354 0 0.658 0.252 0.727 0.602l2.59 13.389-1.454 0.283-2.473-12.786zM28.861 20.834h-8.878v-1.487h8.878v1.487zM21.199 14.783l0.74-1.288 7.688 4.463-0.74 1.288-7.688-4.463zM29.627 22.222l-7.688 4.462-0.74-1.288 7.688-4.463 0.74 1.289zM30.98 23.038l-4.438 7.73-1.28-0.744 4.438-7.729 1.28 0.743zM38.38 30.023l-1.28 0.744-4.44-7.73 1.28-0.743 4.44 7.729zM34.754 20.933l7.686 4.463-0.739 1.288-7.688-4.462 0.74-1.289z"></path>
</symbol>
<symbol id="icon-cat5" viewBox="0 0 29 32">
<title>cat5</title>
<path d="M27.52 16.64h-0.64v10.24c0 2.828-2.292 5.119-5.12 5.119h-14.080c-2.828 0-5.12-2.291-5.12-5.119v-10.24h-0.64c-1.059 0-1.92-0.861-1.92-1.92v-5.12c0-1.060 0.861-1.921 1.92-1.921h0.64v-2.559c0-2.829 2.292-5.12 5.12-5.12h14.080c2.828 0 5.12 2.291 5.12 5.12v2.559h0.64c1.059 0 1.92 0.861 1.92 1.921v5.12c0 1.059-0.861 1.92-1.92 1.92zM2.56 8.959h-0.64c-0.352 0-0.64 0.288-0.64 0.641v5.12c0 0.352 0.288 0.639 0.64 0.639h0.64v-6.4zM25.6 16.64v-11.52c0-2.118-1.723-3.84-3.84-3.84h-14.080c-2.117 0-3.84 1.722-3.84 3.84v21.76c0 2.117 1.723 3.84 3.84 3.84h14.080c2.117 0 3.84-1.723 3.84-3.84v-10.24zM28.16 9.6c0-0.353-0.288-0.641-0.64-0.641h-0.64v6.4h0.64c0.352 0 0.64-0.287 0.64-0.639v-5.12zM6.4 7.679h16.64v8.961h-16.64v-8.961zM21.76 15.359v-6.4h-4.49c0 0.113-0.019 0.227-0.081 0.33l-3.643 6.070h8.214zM12.17 15.359c0-0.113 0.019-0.225 0.081-0.329l3.643-6.071h-2.465c0.001 0.113-0.018 0.227-0.079 0.33l-3.643 6.070h2.464zM7.68 15.359h0.65c0-0.113 0.019-0.225 0.081-0.329l3.643-6.071h-4.374v6.4z"></path>
</symbol>
<symbol id="icon-cat1" viewBox="0 0 28 32">
<title>cat1</title>
<path d="M19.2 32v-3.84h-2.56v3.84h-8.96v-6.4h-5.76c-0.355 0-0.64-0.287-0.64-0.641v-3.316c-0.744-0.265-1.28-0.968-1.28-1.802v-10.88h1.28v-3.841c0-0.212 0.108-0.413 0.285-0.531l3.84-2.56 0.709 1.064-3.555 2.371v3.498h1.28v10.88c0 0.835-0.536 1.537-1.28 1.802v2.678h5.12v-17.281c0-2.254 1.672-4.101 3.84-4.415v-1.344h-1.28v-1.28h3.84v1.28h-1.28v1.344c2.168 0.314 3.84 2.161 3.84 4.415v19.841h2.56v-19.841c0-2.254 1.672-4.101 3.84-4.415v-1.344h-1.28v-1.28h3.84v1.28h-1.28v1.344c2.168 0.314 3.84 2.161 3.84 4.415v24.961h-8.96zM2.56 10.239h-1.28v9.601c0 0.352 0.287 0.64 0.64 0.64s0.64-0.288 0.64-0.64v-9.601zM15.36 7.039c0-1.764-1.436-3.199-3.2-3.199-1.765 0-3.2 1.435-3.2 3.199v19.841h6.4v-19.841zM15.36 28.16h-6.4v2.56h6.4v-2.56zM26.88 7.039c0-1.764-1.436-3.199-3.2-3.199-1.765 0-3.2 1.435-3.2 3.199v19.841h6.4v-19.841zM26.88 28.16h-6.4v2.56h6.4v-2.56zM23.040 17.92h-1.28v-11.52h1.28v11.52zM10.24 6.4h1.28v11.52h-1.28v-11.52z"></path>
</symbol>
<symbol id="icon-fb" viewBox="0 0 17 32">
<title>fb</title>
<path d="M16.635 0h-4.159c-4.621 0-7.74 3.119-7.74 7.856v3.581h-4.159c-0.383 0-0.693 0.31-0.693 0.693v5.314c0 0.383 0.31 0.693 0.693 0.693h4.159v13.285c0 0.383 0.31 0.693 0.693 0.693h5.43c0.383 0 0.693-0.31 0.693-0.693v-13.285h4.852c0.383 0 0.693-0.31 0.693-0.693v-5.314c-0.016-0.185-0.101-0.347-0.23-0.461l-0.463-0.232h-4.852v-3.004c0-1.502 0.347-2.195 2.31-2.195h2.773c0.383 0 0.693-0.31 0.693-0.693v-4.852c0-0.383-0.31-0.693-0.693-0.693z"></path>
</symbol>
<symbol id="icon-gp" viewBox="0 0 30 32">
<title>gp</title>
<path d="M19.5 0h-7.3c-0.209-0.015-0.453-0.023-0.699-0.023-2.637 0-5.051 0.954-6.917 2.536-1.552 1.361-2.547 3.354-2.584 5.581-0.001 0.037-0.001 0.073-0.001 0.11 0 3.59 2.91 6.5 6.5 6.5 0.071 0 0.141-0.001 0.211-0.003l1.29 0v0.2c-0.19 0.424-0.3 0.919-0.3 1.44 0 0.021 0 0.042 0.001 0.063 0.044 1.041 0.454 1.981 1.103 2.701l-0.203-0.004c-1.8 0.1-5.1 0.4-7.5 1.9-1.792 1.001-3.005 2.849-3.1 4.987-0 3.013 2.7 6.013 8.6 6.013s10.6-4 10.6-7.9-1.6-4.3-3.4-5.8l-1.5-1.2c-0.582-0.402-0.967-1.053-1-1.795 0.083-0.82 0.492-1.527 1.094-2l0.106-0.005c1.6-1.3 3.4-2.8 3.4-5.9-0.008-2.332-1.14-4.398-2.881-5.686l2.481-0.014 2.1-1.4c0.061-0.035 0.102-0.1 0.102-0.174 0-0.009-0.001-0.018-0.002-0.027l-0.2 0.001zM10.6 30.3c-4.2 0-7.1-2-7.1-5.1s1.2-3.5 3.5-4.3c1.247-0.402 2.686-0.655 4.177-0.699l0.923-0.001c3 2.2 4.4 3.3 4.4 5.5s-2.3 4.6-5.9 4.6zM10.6 13.5c-3.5 0-5-4.8-5-7.4-0.010-0.118-0.016-0.255-0.016-0.393 0-1.008 0.305-1.946 0.827-2.725 0.652-0.814 1.655-1.351 2.784-1.382 3.305-0 5.105 4.5 5.105 7.7 0.003 0.060 0.005 0.131 0.005 0.202 0 1.066-0.379 2.044-1.011 2.806-0.685 0.698-1.633 1.149-2.686 1.192z"></path>
<path d="M29.8 14.9h-3.8v-4l-0.2-0.2h-1.7l-0.2 0.2v4h-3.8l-0.2 0.2v1.8l0.2 0.1h3.9v4l0.2 0.2h1.7l0.2-0.2v-4h3.9l0.2-0.2v-1.7z"></path>
</symbol>
<symbol id="icon-tw" viewBox="0 0 39 32">
<title>tw</title>
<path d="M38.957 3.757c-1.337 0.609-2.889 1.050-4.516 1.245 1.565-1.010 2.794-2.555 3.387-4.388-1.425 0.821-3.102 1.496-4.888 1.872-1.555-1.525-3.609-2.486-5.888-2.486-0.021 0-0.042 0-0.063 0-4.393 0.078-7.927 3.661-7.927 8.068 0 0 0 0.001 0 0.001-0.003 0.083-0.005 0.181-0.005 0.279 0 0.541 0.052 1.070 0.152 1.582-6.67-0.427-12.512-3.642-16.391-8.494-0.714 1.124-1.115 2.528-1.115 4.025 0 2.806 1.408 5.284 3.557 6.764-1.304-0.016-2.545-0.373-3.63-0.977l0.040 0.021c-0 0.011-0 0.023-0 0.035 0 3.865 2.718 7.096 6.347 7.885l-2.034 0.288h-1.53c1.070 3.209 4.015 5.494 7.505 5.565-2.673 2.16-6.117 3.47-9.868 3.478h-2.089c3.444 2.268 7.667 3.617 12.206 3.617 0.013 0 0.027 0 0.040-0 14.746 0 22.676-12.383 22.676-22.957v-1.113c1.602-1.185 2.944-2.615 3.997-4.25z"></path>
</symbol>
<symbol id="icon-vk" viewBox="0 0 25 32">
<title>vk</title>
<path d="M18.036 14.4v0c2.738-0.934 4.673-3.483 4.673-6.485 0-0.175-0.007-0.348-0.019-0.52 0.001-4.777-3.78-7.395-8.144-7.395h-14.545v32h13.382c8.145 0 11.345-5.091 11.345-9.745s-2.764-7.127-6.691-7.855zM7.418 5.673h1.745c0.344-0.044 0.742-0.069 1.146-0.069 1.1 0 2.156 0.185 3.14 0.525 0.899 0.578 1.533 1.632 1.533 2.834 0 0.019-0 0.039-0.001 0.058 0.001 0.031 0.002 0.071 0.002 0.111 0 1.121-0.507 2.124-1.305 2.791-0.882 0.502-1.931 0.795-3.049 0.795-0.312 0-0.619-0.023-0.918-0.067l-2.148 0.004v-6.982zM15.273 25.309c-0.966 0.493-2.107 0.782-3.316 0.782-0.318 0-0.631-0.020-0.939-0.059l-3.454 0.004v-7.855h3.927c0.19-0.017 0.412-0.026 0.635-0.026 1.084 0 2.115 0.224 3.051 0.627 0.974 0.699 1.647 1.857 1.695 3.174 0.001 0.040 0.002 0.077 0.002 0.115 0 1.316-0.624 2.486-1.592 3.23z"></path>
</symbol>
<symbol id="icon-close" viewBox="0 0 32 32">
<title>close</title>
<path d="M28.8 32c-0.878-0.013-1.669-0.378-2.239-0.959l-25.601-25.601c-0.4-0.528-0.64-1.196-0.64-1.92 0-1.767 1.433-3.2 3.2-3.2 0.724 0 1.392 0.24 1.928 0.646l25.592 25.594c0.566 0.577 0.915 1.368 0.915 2.24 0 1.752-1.407 3.174-3.153 3.2z"></path>
<path d="M3.2 32c-1.748-0.025-3.155-1.448-3.155-3.2 0-0.873 0.349-1.664 0.916-2.241l25.599-25.599c0.528-0.4 1.196-0.64 1.92-0.64 1.767 0 3.2 1.433 3.2 3.2 0 0.724-0.24 1.392-0.646 1.928l-25.594 25.592c-0.571 0.582-1.362 0.947-2.238 0.96z"></path>
</symbol>
<symbol id="icon-cart" viewBox="0 0 32 32">
<title>cart</title>
<path d="M29.333 21.333h-24c-1.473 0-2.667-1.194-2.667-2.667v-13.333h-2.667v-5.333h5.333c1.473 0 2.667 1.194 2.667 2.667v13.333h18.667v-5.333h-18.667v-5.333h21.333c1.473 0 2.667 1.194 2.667 2.667v10.667c0 1.473-1.194 2.667-2.667 2.667z"></path>
<path d="M26.667 28c0 2.209-1.791 4-4 4s-4-1.791-4-4c0-2.209 1.791-4 4-4s4 1.791 4 4z"></path>
<path d="M16 28c0 2.209-1.791 4-4 4s-4-1.791-4-4c0-2.209 1.791-4 4-4s4 1.791 4 4z"></path>
</symbol>
<symbol id="icon-spare" viewBox="0 0 32 32">
<title>spare</title>
<path d="M31.754 12.554l-3.692-0.738-0.738-1.723 2.215-2.708c0.041-0.071 0.066-0.156 0.066-0.246s-0.024-0.176-0.067-0.248l-4.43-4.428h-0.492l-3.2 2.215-1.723-0.738-0.738-3.692h-6.4l-0.738 3.692-1.723 0.738-2.708-2.215h-0.492l-4.431 4.431c-0.041 0.071-0.066 0.156-0.066 0.246s0.025 0.176 0.067 0.248l2.214 3.198-0.738 1.723-3.692 0.738h-0.246v5.908h0.246l3.692 0.738 0.738 1.723-2.215 3.2c-0.041 0.071-0.066 0.156-0.066 0.246s0.025 0.176 0.067 0.248l4.429 4.428h0.492l3.2-2.215 1.723 0.738 0.738 3.692h6.646l0.738-3.692 1.723-0.738 2.462 2.215h0.492l4.431-4.431c0.041-0.071 0.066-0.156 0.066-0.246s-0.024-0.176-0.067-0.248l-2.214-3.198 0.738-1.723 3.692-0.738h0.246v-5.908h-0.246zM16 22.154c-3.399 0-6.154-2.755-6.154-6.154s2.755-6.154 6.154-6.154c3.399 0 6.154 2.755 6.154 6.154s-2.755 6.154-6.154 6.154z"></path>
</symbol>
<symbol id="icon-description" viewBox="0 0 30 32">
<title>description</title>
<path d="M2.462 0h24.615v12.308h-24.615v-12.308z"></path>
<path d="M0 17.231h29.538v4.923h-29.538v-4.923z"></path>
<path d="M0 27.077h29.538v4.923h-29.538v-4.923z"></path>
</symbol>
<symbol id="icon-characteristics" viewBox="0 0 35 32">
<title>characteristics</title>
<path d="M0 0h34.667v5.333h-34.667v-5.333z"></path>
<path d="M0 13.333h34.667v5.333h-34.667v-5.333z"></path>
<path d="M0 26.667h34.667v5.333h-34.667v-5.333z"></path>
</symbol>
<symbol id="icon-arrow" viewBox="0 0 18 32">
<title>arrow</title>
<path d="M2.286 32h-1.829c-0.404-0.412-0.653-0.977-0.653-1.6s0.249-1.188 0.654-1.6l11.885-11.885-11.886-11.886c-0.285-0.377-0.457-0.854-0.457-1.371 0-1.262 1.023-2.286 2.286-2.286 0.517 0 0.994 0.172 1.377 0.461l13.709 13.71c0.404 0.412 0.653 0.977 0.653 1.6s-0.249 1.188-0.654 1.6l-13.714 13.714h-1.371z"></path>
</symbol>
<symbol id="icon-certificate" viewBox="0 0 26 32">
<title>certificate</title>
<path d="M25.905 32h-25.905v-32h25.905v32zM1.524 30.476h22.857v-28.952h-22.857v28.952z"></path>
<path d="M10.667 10.667h-6.857v-6.857h6.857v6.857zM5.333 9.143h3.81v-3.81h-3.81v3.81z"></path>
<path d="M12.19 6.857h9.905v0.762h-9.905v-0.762z"></path>
<path d="M12.19 4.571h4.571v0.762h-4.571v-0.762z"></path>
<path d="M12.19 9.143h9.905v0.762h-9.905v-0.762z"></path>
<path d="M3.81 12.19h18.286v0.762h-18.286v-0.762z"></path>
<path d="M3.81 15.238h18.286v0.762h-18.286v-0.762z"></path>
<path d="M3.81 18.286h18.286v0.762h-18.286v-0.762z"></path>
<path d="M3.81 21.333h9.143v0.762h-9.143v-0.762z"></path>
<path d="M3.81 24.381h6.857v0.762h-6.857v-0.762z"></path>
<path d="M3.81 27.429h3.81v0.762h-3.81v-0.762z"></path>
<path d="M18.286 28.19c-2.104 0-3.81-1.706-3.81-3.81s1.706-3.81 3.81-3.81c2.104 0 3.81 1.706 3.81 3.81s-1.706 3.81-3.81 3.81zM18.286 22.095c-1.262 0-2.286 1.023-2.286 2.286s1.023 2.286 2.286 2.286c1.262 0 2.286-1.023 2.286-2.286s-1.023-2.286-2.286-2.286z"></path>
</symbol>
<symbol id="icon-special" viewBox="0 0 32 32">
<title>special</title>
<path d="M16.83 20h-4.755v-4.83l15.094-15.17 4.83 4.83zM13.585 18.491h2.642l13.66-13.585-2.717-2.717-13.585 13.585v2.642z"></path>
<path d="M5.283 24.528h-4.528c-0.417 0-0.755-0.338-0.755-0.755s0.338-0.755 0.755-0.755h4.528c0.417 0 0.755 0.338 0.755 0.755s-0.338 0.755-0.755 0.755z"></path>
<path d="M15.849 24.528h-4.528c-0.417 0-0.755-0.338-0.755-0.755s0.338-0.755 0.755-0.755h4.528c0.417 0 0.755 0.338 0.755 0.755s-0.338 0.755-0.755 0.755z"></path>
<path d="M8.302 32.075c-0.417 0-0.755-0.338-0.755-0.755v-4.528c0-0.417 0.338-0.755 0.755-0.755s0.755 0.338 0.755 0.755v4.528c0 0.417-0.338 0.755-0.755 0.755z"></path>
<path d="M8.302 21.509c-0.417 0-0.755-0.338-0.755-0.755v-4.528c0-0.417 0.338-0.755 0.755-0.755s0.755 0.338 0.755 0.755v4.528c0 0.417-0.338 0.755-0.755 0.755z"></path>
<path d="M9.811 23.698c0 0.834-0.676 1.509-1.509 1.509s-1.509-0.676-1.509-1.509c0-0.834 0.676-1.509 1.509-1.509s1.509 0.676 1.509 1.509z"></path>
<path d="M12.284 16.001l1.067-1.067 3.714 3.714-1.067 1.067-3.714-3.714z"></path>
<path d="M24.382 3.852l1.067-1.067 3.773 3.773-1.067 1.067-3.773-3.773z"></path>
<path d="M17.871 13.671l6.778-6.778 0.534 0.534-6.778 6.778-0.534-0.534z"></path>
</symbol>
<symbol id="icon-technology" viewBox="0 0 29 32">
<title>technology</title>
<path d="M26.667 14.072v6.843c0 6.112-4.923 11.084-10.974 11.084h-2.432c-6.051 0-10.974-4.972-10.974-11.084v-6.843c-1.294-0.118-2.286-1.397-2.286-3.025v-1.524c0-1.629 0.991-2.907 2.286-3.025v-0.33c0-3.402 2.742-6.169 6.111-6.169h12.158c3.37 0 6.112 2.767 6.112 6.169v0.33c1.294 0.118 2.286 1.396 2.286 3.025v1.524c0 1.628-0.991 2.907-2.286 3.025zM2.286 8.039c-0.391 0.144-0.762 0.712-0.762 1.485v1.524c0 0.773 0.371 1.34 0.762 1.485v-4.494zM25.143 6.169c0-2.562-2.058-4.645-4.588-4.645h-12.158c-2.53 0-4.587 2.084-4.587 4.645v14.747c0 5.271 4.239 9.56 9.451 9.56h2.432c5.211 0 9.451-4.29 9.451-9.56v-14.747zM27.429 9.524c0-0.773-0.372-1.341-0.762-1.485v4.494c0.39-0.145 0.762-0.712 0.762-1.485v-1.524zM5.333 6.857h18.286v12.19h-18.286v-12.19zM6.095 18.286h16.762v-10.667h-16.762v10.667zM7.619 9.143h13.714v7.619h-13.714v-7.619zM8.381 16h12.19v-6.095h-12.19v6.095z"></path>
</symbol>
<symbol id="icon-spare2" viewBox="0 0 24 32">
<title>spare2</title>
<path d="M24.161 1.229c-0.029 0.020-2.959 2.117-5.582 3.702-1.752 1.059-3.48 1.82-3.999 2.005-0.317 0.113-0.641 0.166-0.959 0.166-1.164 0-2.258-0.714-2.674-1.858-0.53-1.458 0.238-3.071 1.71-3.595 0.518-0.184 2.339-0.687 4.374-0.976 3.041-0.432 6.649-0.664 6.685-0.667 0.303-0.022 0.584 0.163 0.687 0.446s0.005 0.6-0.242 0.777zM17.225 2.011c-1.97 0.28-3.698 0.765-4.105 0.91-0.764 0.272-1.162 1.108-0.886 1.865s1.121 1.15 1.883 0.878c0.408-0.146 2.054-0.863 3.75-1.887 1.185-0.716 2.437-1.541 3.445-2.224-1.217 0.11-2.712 0.264-4.087 0.458zM9.762 6.271l-6.346 1.884v6.468h1.366c0.377 0 0.684 0.303 0.684 0.676v13.669c0.836 0.607 4.37 2.663 12.155 1.012 0.372-0.080 0.732 0.154 0.812 0.52s-0.156 0.724-0.524 0.803c-2.255 0.478-4.184 0.663-5.82 0.663-3.34 0-5.451-0.771-6.622-1.402v0.754c0 0.373-0.306 0.676-0.684 0.676h-4.099c-0.377 0-0.683-0.303-0.683-0.676v-16.018c0-0.373 0.306-0.676 0.683-0.676h1.366v-6.971c0-0.298 0.198-0.562 0.487-0.647l6.833-2.028c0.362-0.106 0.741 0.095 0.85 0.453s-0.097 0.735-0.458 0.842zM1.367 15.976v14.666h2.733v-14.666h-2.733zM2.050 21.175h0.684v8.114h-0.684v-8.114z"></path>
</symbol>
<symbol id="icon-deadline" viewBox="0 0 32 32">
<title>deadline</title>
<path d="M5.79 22.634l-1.108 0.64c-0.101 0.058-0.211 0.086-0.319 0.086-0.221 0-0.436-0.115-0.555-0.32-0.177-0.307-0.072-0.698 0.234-0.874l1.108-0.64c0.306-0.178 0.697-0.072 0.874 0.234s0.072 0.698-0.234 0.874zM4.481 16c0 0.353-0.286 0.64-0.64 0.64h-1.279c-0.354 0-0.64-0.287-0.64-0.64s0.286-0.64 0.64-0.64h1.279c0.354 0 0.64 0.287 0.64 0.64zM4.682 8.726l1.108 0.64c0.306 0.177 0.411 0.568 0.234 0.874-0.119 0.205-0.334 0.32-0.555 0.32-0.109 0-0.219-0.028-0.319-0.086l-1.108-0.64c-0.307-0.177-0.411-0.568-0.234-0.874s0.568-0.412 0.874-0.234zM9.366 26.211c0.177-0.305 0.568-0.412 0.875-0.234 0.306 0.177 0.411 0.568 0.234 0.874l-0.64 1.108c-0.119 0.205-0.334 0.32-0.555 0.32-0.109 0-0.219-0.027-0.319-0.085-0.306-0.177-0.411-0.568-0.234-0.875l0.639-1.108zM8.961 3.806c0.305-0.177 0.698-0.072 0.874 0.234l0.64 1.108c0.177 0.306 0.072 0.698-0.234 0.875-0.101 0.058-0.211 0.085-0.319 0.085-0.221 0-0.436-0.115-0.556-0.32l-0.639-1.108c-0.177-0.306-0.072-0.698 0.234-0.874zM26.363 28.175l4.994-0.015c0.001 0 0.001 0 0.002 0 0.353 0 0.639 0.285 0.64 0.638s-0.284 0.641-0.638 0.642l-6.399 0.020c-0.001 0-0.001 0-0.002 0-0.088 0-0.172-0.018-0.248-0.050-2.509 1.635-5.5 2.59-8.711 2.59-3.222 0-6.222-0.961-8.735-2.605-0.070 0.026-0.143 0.045-0.222 0.045l-6.399 0.020c-0.001 0-0.001 0-0.002 0-0.353 0-0.639-0.285-0.64-0.638s0.285-0.641 0.638-0.642l4.985-0.015c-3.437-2.937-5.623-7.299-5.623-12.164 0-8.822 7.177-16 15.999-16 0.223 0 0.445 0.004 0.666 0.013l-0.052 1.279c-0.204-0.008-0.408-0.012-0.614-0.012-8.116 0-14.719 6.604-14.719 14.72s6.603 14.72 14.719 14.72c8.116 0 14.719-6.603 14.719-14.72 0-0.205-0.004-0.41-0.012-0.614l1.279-0.052c0.009 0.221 0.013 0.443 0.013 0.666 0 4.872-2.191 9.238-5.636 12.175zM30.308 12.529l1.244-0.301c0.097 0.402 0.18 0.815 0.246 1.228l-1.264 0.203c-0.061-0.38-0.137-0.76-0.226-1.129zM29.36 9.816l1.162-0.539c0.175 0.379 0.338 0.768 0.481 1.156l-1.2 0.444c-0.132-0.356-0.281-0.713-0.443-1.061zM27.902 7.339l1.035-0.754c0.244 0.335 0.478 0.684 0.697 1.039l-1.090 0.671c-0.201-0.327-0.417-0.649-0.642-0.957zM25.991 5.19l0.868-0.94c0.307 0.284 0.605 0.582 0.886 0.886l-0.94 0.868c-0.258-0.279-0.532-0.553-0.814-0.814zM26.21 9.366l1.108-0.64c0.305-0.177 0.697-0.072 0.874 0.234s0.072 0.698-0.234 0.874l-1.108 0.64c-0.1 0.058-0.211 0.086-0.319 0.086-0.221 0-0.436-0.115-0.555-0.32-0.177-0.307-0.072-0.698 0.234-0.874zM27.519 16c0-0.353 0.286-0.64 0.64-0.64h1.279c0.354 0 0.64 0.287 0.64 0.64s-0.286 0.64-0.64 0.64h-1.279c-0.354 0-0.64-0.287-0.64-0.64zM27.638 23.36c-0.109 0-0.219-0.028-0.319-0.086l-1.108-0.64c-0.307-0.177-0.412-0.568-0.234-0.874s0.568-0.412 0.874-0.234l1.108 0.64c0.306 0.177 0.412 0.568 0.234 0.874-0.118 0.205-0.333 0.32-0.555 0.32zM23.699 3.452l0.671-1.090c0.357 0.22 0.707 0.454 1.040 0.698l-0.755 1.034c-0.305-0.223-0.627-0.439-0.956-0.641zM22.634 26.211l0.64 1.108c0.177 0.307 0.072 0.698-0.234 0.875-0.1 0.058-0.211 0.085-0.319 0.085-0.221 0-0.436-0.115-0.555-0.32l-0.64-1.108c-0.177-0.306-0.072-0.698 0.234-0.874 0.305-0.178 0.697-0.071 0.874 0.234zM16.64 28.16v1.28c0 0.354-0.287 0.64-0.64 0.64s-0.64-0.286-0.64-0.64v-1.28c0-0.354 0.287-0.64 0.64-0.64s0.64 0.286 0.64 0.64zM16 4.48c-0.353 0-0.64-0.287-0.64-0.64v-1.28c0-0.353 0.287-0.64 0.64-0.64s0.64 0.287 0.64 0.64v1.28c0 0.353-0.287 0.64-0.64 0.64zM23.039 16.64h-5.937c-0.221 0.381-0.63 0.64-1.102 0.64-0.707 0-1.28-0.573-1.28-1.28 0-0.473 0.259-0.881 0.64-1.103v-7.857c0-0.353 0.287-0.64 0.64-0.64s0.64 0.287 0.64 0.64v7.857c0.192 0.112 0.351 0.271 0.462 0.463h5.937c0.354 0 0.64 0.287 0.64 0.64s-0.286 0.64-0.64 0.64zM22.634 5.789c-0.118 0.205-0.333 0.32-0.555 0.32-0.109 0-0.219-0.028-0.319-0.085-0.306-0.177-0.411-0.569-0.234-0.875l0.64-1.108c0.177-0.307 0.569-0.412 0.874-0.234 0.307 0.177 0.412 0.568 0.234 0.874l-0.64 1.108zM21.116 2.193l0.445-1.2c0.39 0.145 0.78 0.307 1.156 0.481l-0.539 1.161c-0.345-0.16-0.703-0.309-1.062-0.442zM18.334 1.464l0.202-1.264c0.41 0.066 0.824 0.148 1.228 0.246l-0.3 1.244c-0.372-0.090-0.752-0.166-1.13-0.226z"></path>
</symbol>
    <symbol id="icon-low_price" viewBox="0 0 32 32">
        <title>low_price</title>
        <path d="M31.4 25h-30.8c-0.359 0-0.65-0.291-0.65-0.65s0.291-0.65 0.65-0.65h30.8c0.359 0 0.65 0.291 0.65 0.65s-0.291 0.65-0.65 0.65z"></path>
        <path d="M31.4 32h-30.8c-0.359 0-0.65-0.291-0.65-0.65s0.291-0.65 0.65-0.65h30.8c0.359 0 0.65 0.291 0.65 0.65s-0.291 0.65-0.65 0.65z"></path>
        <path d="M5.4 30.1c-1.215 0-2.2-0.985-2.2-2.2s0.985-2.2 2.2-2.2c1.215 0 2.2 0.985 2.2 2.2s-0.985 2.2-2.2 2.2zM5.4 26.9c-0.552 0-1 0.448-1 1s0.448 1 1 1c0.552 0 1-0.448 1-1s-0.448-1-1-1z"></path>
        <path d="M12.5 30.1c-1.215 0-2.2-0.985-2.2-2.2s0.985-2.2 2.2-2.2c1.215 0 2.2 0.985 2.2 2.2s-0.985 2.2-2.2 2.2zM12.5 26.9c-0.552 0-1 0.448-1 1s0.448 1 1 1c0.552 0 1-0.448 1-1s-0.448-1-1-1z"></path>
        <path d="M19.5 30.1c-1.215 0-2.2-0.985-2.2-2.2s0.985-2.2 2.2-2.2c1.215 0 2.2 0.985 2.2 2.2s-0.985 2.2-2.2 2.2zM19.5 26.9c-0.552 0-1 0.448-1 1s0.448 1 1 1c0.552 0 1-0.448 1-1s-0.448-1-1-1z"></path>
        <path d="M26.6 30.1c-1.215 0-2.2-0.985-2.2-2.2s0.985-2.2 2.2-2.2c1.215 0 2.2 0.985 2.2 2.2s-0.985 2.2-2.2 2.2zM26.6 26.9c-0.552 0-1 0.448-1 1s0.448 1 1 1c0.552 0 1-0.448 1-1s-0.448-1-1-1z"></path>
        <path d="M9.9 3.8c1.602 0 2.9 1.298 2.9 2.9v15h-6.4v-14.9c-0.001-0.030-0.002-0.065-0.002-0.1 0-1.602 1.298-2.9 2.9-2.9 0.001 0 0.001 0 0.002 0h0.6zM9.9 2.6h-0.6c-2.32 0-4.2 1.88-4.2 4.2v16.2h9v-16.2c0-2.32-1.88-4.2-4.2-4.2v0z"></path>
        <path d="M9.6 3.8c-0.331 0-0.6-0.269-0.6-0.6v-2.6c0-0.359 0.291-0.65 0.65-0.65s0.65 0.291 0.65 0.65v2.6c0 0.002 0 0.005 0 0.008 0 0.331-0.269 0.6-0.6 0.6-0.035 0-0.070-0.003-0.104-0.009z"></path>
        <path d="M10.9 1.3h-2.6c-0.359 0-0.65-0.291-0.65-0.65s0.291-0.65 0.65-0.65h2.6c0.359 0 0.65 0.291 0.65 0.65s-0.291 0.65-0.65 0.65z"></path>
        <path d="M5.8 18.6h7.7v1.28h-7.7v-1.28z"></path>
        <path d="M7.7 16c-0.030 0.005-0.065 0.008-0.1 0.008-0.331 0-0.6-0.269-0.6-0.6 0-0.003 0-0.006 0-0.009v-6.4c0-0.359 0.291-0.65 0.65-0.65s0.65 0.291 0.65 0.65v6.4c0 0.331-0.269 0.6-0.6 0.6z"></path>
        <path d="M22.7 3.8c1.602 0 2.9 1.298 2.9 2.9v15h-6.4v-14.9c0-1.602 1.298-2.9 2.9-2.9h0.5zM22.8 2.5h-0.7c-2.32 0-4.2 1.88-4.2 4.2v16.3h9v-16.2c0-2.32-1.88-4.2-4.2-4.2h0.1z"></path>
        <path d="M22.4 3.8c-0.331 0-0.6-0.269-0.6-0.6v-2.6c0-0.331 0.269-0.6 0.6-0.6s0.6 0.269 0.6 0.6v2.6c0 0.331-0.269 0.6-0.6 0.6z"></path>
        <path d="M23.7 1.3h-2.6c-0.359 0-0.65-0.291-0.65-0.65s0.291-0.65 0.65-0.65h2.6c0.359 0 0.65 0.291 0.65 0.65s-0.291 0.65-0.65 0.65z"></path>
        <path d="M18.6 18.6h7.7v1.28h-7.7v-1.28z"></path>
        <path d="M20.5 16c-0.331 0-0.6-0.269-0.6-0.6v-6.4c0-0.359 0.291-0.65 0.65-0.65s0.65 0.291 0.65 0.65v6.4c0 0.002 0 0.005 0 0.008 0 0.331-0.269 0.6-0.6 0.6-0.035 0-0.070-0.003-0.104-0.009z"></path>
    </symbol>
<symbol id="icon-original" viewBox="0 0 40 32">
<title>original</title>
<path d="M39.2 29.6h-21.6c-0.442 0-0.8-0.358-0.8-0.8s0.358-0.8 0.8-0.8h20.8v-26.4h-36.8v27.2c0 0.442-0.358 0.8-0.8 0.8s-0.8-0.358-0.8-0.8v-28c0-0.442 0.358-0.8 0.8-0.8h38.4c0.442 0 0.8 0.358 0.8 0.8v28c0 0.442-0.358 0.8-0.8 0.8z"></path>
<path d="M12 12.8h-6.4c-0.442 0-0.8-0.358-0.8-0.8v-6.4c0-0.442 0.358-0.8 0.8-0.8h6.4c0.442 0 0.8 0.358 0.8 0.8v6.4c0 0.442-0.358 0.8-0.8 0.8zM6.4 11.2h4.8v-4.8h-4.8v4.8z"></path>
<path d="M9.2 27.28c-2.43 0-4.4-1.97-4.4-4.4s1.97-4.4 4.4-4.4c2.43 0 4.4 1.97 4.4 4.4s-1.97 4.4-4.4 4.4zM9.2 20.080c-1.546 0-2.8 1.254-2.8 2.8s1.254 2.8 2.8 2.8c1.546 0 2.8-1.254 2.8-2.8s-1.254-2.8-2.8-2.8z"></path>
<path d="M12.4 32c-0.13 0-0.246-0.062-0.319-0.159l-3.201-5.521 0.72-0.4 2.72 4.72 0.32-1.28 0.16-0.24h0.32l1.28 0.32-2.72-4.72 0.72-0.4 3.2 5.52c0.050 0.066 0.080 0.149 0.080 0.24s-0.030 0.174-0.081 0.241c-0.073 0.101-0.191 0.166-0.324 0.166-0.026 0-0.052-0.003-0.077-0.007l-1.757-0.48-0.64 1.76c-0.031 0.163-0.157 0.289-0.318 0.32l-0.082 0z"></path>
<path d="M6 32h-0.080c-0.144-0.018-0.264-0.111-0.319-0.237l-0.481-1.843-1.84 0.48c-0.037 0.012-0.079 0.019-0.122 0.019-0.221 0-0.4-0.179-0.4-0.4 0-0.065 0.016-0.127 0.043-0.181l3.199-5.518 0.72 0.4-2.72 4.64 1.28-0.32h0.32l0.16 0.24 0.32 1.28 2.72-4.64 0.72 0.4-3.2 5.52c-0.074 0.098-0.19 0.16-0.32 0.16z"></path>
<path d="M25.6 12.8h-8.8c-0.442 0-0.8-0.358-0.8-0.8s0.358-0.8 0.8-0.8h8.8c0.442 0 0.8 0.358 0.8 0.8s-0.358 0.8-0.8 0.8z"></path>
<path d="M34.4 16.8h-17.6c-0.442 0-0.8-0.358-0.8-0.8s0.358-0.8 0.8-0.8h17.6c0.442 0 0.8 0.358 0.8 0.8s-0.358 0.8-0.8 0.8z"></path>
<path d="M34.4 20.8h-17.6c-0.442 0-0.8-0.358-0.8-0.8s0.358-0.8 0.8-0.8h17.6c0.442 0 0.8 0.358 0.8 0.8s-0.358 0.8-0.8 0.8z"></path>
<path d="M34.4 24.8h-17.6c-0.442 0-0.8-0.358-0.8-0.8s0.358-0.8 0.8-0.8h17.6c0.442 0 0.8 0.358 0.8 0.8s-0.358 0.8-0.8 0.8z"></path>
</symbol>
<symbol id="icon-popular" viewBox="0 0 32 32">
<title>popular</title>
<path d="M30.825 25.31c-4.065-3.262-8.419-5.374-9.347-5.823-0.064-0.096-0.16-0.192-0.16-0.256v-2.913c0.448-0.8 0.8-1.6 0.896-2.401 0.352 0 0.832-0.512 1.28-2.209 0.704-2.273 0.096-2.625-0.544-2.625-0.282-7.894-3.607-9.072-6.946-9.084-3.335-0.013-7.343 1.444-6.946 8.992-0.544 0-1.184 0.448-0.544 2.657 0.448 1.665 0.928 2.209 1.28 2.209 0.096 0.704 0.448 1.568 0.896 2.369v2.913c0 0.032 0 0.032-0.032 0.064 0 0.064-0.096 0.128-0.128 0.192-0.928 0.445-5.378 2.558-9.347 5.819-0.736 0.608-1.184 1.504-1.184 2.369v4.417h32.010v-4.321c0-0.896-0.448-1.761-1.184-2.369z"></path>
</symbol>
<symbol id="icon-recommend" viewBox="0 0 32 32">
<title>recommend</title>
<path d="M30.545 20.029c0-1.652-1.225-3.066-2.781-3.354 0.535-0.605 0.87-1.129 0.87-2.004 0-1.885-1.51-3.148-3.363-3.148h-4.285c3.956-5.85 3.363-8.372 2.9-9.513-0.46-1.274-1.251-2.010-1.911-2.010-0.329 0-0.593 0-0.724 0.268-1.847 3.081-4.55 5.126-6.924 7.002-0.527 0.401-1.053 1.245-1.583 1.713-3.494 2.88-5.935 5.466-5.935 5.466h-5.356v14.627h4.698c0 0 2.141 2.927 8.044 2.927h10.001c1.312 0 2.388-0.282 2.388-1.615 0.049-0.879-0.407-1.242-1.1-1.667 1.78-0.084 3.209-1.367 3.209-3.197 0-0.908-0.355-1.623-0.925-2.237 1.577-0.288 2.775-1.58 2.775-3.258z"></path>
</symbol>
    <symbol id="icon-sale" viewBox="0 0 32 32">
        <title>sale</title>
        <path d="M15.52 32c-0.002 0-0.005 0-0.008 0-0.773 0-1.476-0.305-1.993-0.801l-12.639-12.639c-0.523-0.522-0.847-1.243-0.847-2.040s0.324-1.518 0.847-2.040l13.2-13.2c0.796-0.751 1.858-1.229 3.030-1.28l12.010-0c1.591 0 2.88 1.289 2.88 2.88v12c-0.051 1.182-0.529 2.244-1.282 3.042l-13.198 13.198c-0.508 0.526-1.213 0.859-1.996 0.88zM17.12 1.6c-0.743 0.042-1.41 0.338-1.923 0.802l-13.197 13.198c-0.241 0.233-0.39 0.559-0.39 0.92s0.149 0.687 0.39 0.92l12.56 12.56c0.233 0.241 0.559 0.39 0.92 0.39s0.687-0.149 0.92-0.39l13.2-13.2c0.462-0.51 0.758-1.177 0.8-1.912l0-12.008c0-0.707-0.573-1.28-1.28-1.28h-12z"></path>
        <path d="M24.8 11.2c-2.209 0-4-1.791-4-4s1.791-4 4-4c2.209 0 4 1.791 4 4s-1.791 4-4 4zM24.8 4.8c-1.325 0-2.4 1.075-2.4 2.4s1.075 2.4 2.4 2.4c1.325 0 2.4-1.075 2.4-2.4s-1.075-2.4-2.4-2.4z"></path>
        <path d="M12.48 15.28c-1.546 0-2.8-1.254-2.8-2.8s1.254-2.8 2.8-2.8c1.546 0 2.8 1.254 2.8 2.8s-1.254 2.8-2.8 2.8zM12.48 10.48c-1.105 0-2 0.895-2 2s0.895 2 2 2c1.105 0 2-0.895 2-2s-0.895-2-2-2z"></path>
        <path d="M18.72 21.52c-1.546 0-2.8-1.254-2.8-2.8s1.254-2.8 2.8-2.8c1.546 0 2.8 1.254 2.8 2.8s-1.254 2.8-2.8 2.8zM18.72 16.72c-1.105 0-2 0.895-2 2s0.895 2 2 2c1.105 0 2-0.895 2-2s-0.895-2-2-2z"></path>
        <path d="M12.197 18.428l6.223-6.223 0.566 0.566-6.223 6.223-0.566-0.566z"></path>
    </symbol>
<symbol id="icon-search" viewBox="0 0 32 32">
<title>search</title>
<path d="M31.141 28.098l-6.411-6.45c1.589-2.242 2.533-4.976 2.533-7.934 0-7.563-6.114-13.714-13.632-13.714s-13.63 6.151-13.63 13.714 6.114 13.714 13.632 13.714c2.939 0 5.657-0.951 7.886-2.549l6.411 6.45c0.443 0.446 1.024 0.67 1.605 0.67s1.163-0.224 1.607-0.67c0.887-0.894 0.887-2.338 0-3.232zM13.632 22.857c-5.010 0-9.088-4.101-9.088-9.143s4.075-9.143 9.088-9.143 9.088 4.101 9.088 9.143-4.078 9.143-9.088 9.143z"></path>
</symbol>
<symbol id="icon-warranty" viewBox="0 0 32 32">
<title>warranty</title>
<path d="M31.84 6c-0.041-0.525-0.393-0.958-0.871-1.117l-0.489-0.003c-0.009-0-0.020-0-0.030-0-0.366 0-0.696 0.154-0.929 0.4l-2.321 2.321-2.64-2.64 2.4-2.4c0.275-0.275 0.445-0.655 0.445-1.074 0-0.13-0.016-0.256-0.047-0.376-0.169-0.487-0.591-0.856-1.109-0.948l-1.449-0.001c-3.976 0.001-7.199 3.224-7.199 7.2 0 0.654 0.087 1.288 0.251 1.89l-2.812 2.75-3.12 3.12-10.72 10.56c-0.672 0.651-1.096 1.554-1.12 2.556-0 0.010-0 0.017-0 0.024 0 1.005 0.431 1.909 1.117 2.538l0.083 0.002c0.651 0.672 1.554 1.096 2.556 1.12 0.046 0.002 0.096 0.003 0.145 0.003 0.938 0 1.79-0.367 2.421-0.964l10.798-10.719 2.96-2.96 1.12-1.2 1.92-1.84 1.6 0.16c0.003 0 0.007 0 0.011 0 1.963 0 3.741-0.795 5.029-2.080 1.301-1.303 2.106-3.101 2.106-5.088 0-0.435-0.039-0.861-0.113-1.275zM28.72 11.12c-0.985 0.989-2.348 1.6-3.854 1.6-0.023 0-0.047-0-0.070-0l-1.276-0.16-0.88-0.24-2.48 2.48-1.12 1.28-13.68 13.68c-0.359 0.347-0.849 0.561-1.389 0.561-0.018 0-0.036-0-0.054-0.001-0.565-0.017-1.072-0.259-1.437-0.639l-0.241-0.001c-0.347-0.347-0.562-0.827-0.562-1.357 0-0.029 0.001-0.058 0.002-0.087 0.017-0.563 0.259-1.071 0.639-1.435l11.841-11.761 5.44-5.44-0.24-0.88c-0.134-0.456-0.21-0.979-0.21-1.52 0-3.093 2.507-5.6 5.6-5.6 0.018 0 0.035 0 0.053 0l0.717-0-3.28 3.28 4.96 4.96 3.2-3.2c0.010 0.129 0.016 0.279 0.016 0.431 0 1.585-0.649 3.018-1.696 4.048z"></path>
<path d="M31.84 26.56l-9.2-9.2-1.36-1.28-1.12-1.12-1.12 1.12 11.36 11.36c-0.151 0.75-0.554 1.387-1.114 1.835-1.046 1.045-1.686 1.125-1.846 1.125l-11.36-11.36-1.12 1.12 11.68 11.68c0.247 0.151 0.546 0.24 0.865 0.24 0.005 0 0.010-0 0.015-0 0.639 0 1.679-0.32 3.039-1.6s1.28-3.92 1.28-3.92zM6.4 7.28l-0.16-0.16h-0.16l-2.24-1.44-1.84-3.28 0.4-0.4 3.28 1.84 1.36 2.24v0.16l7.92 7.92 1.12-1.12-7.76-7.76-1.6-2.64-4.72-2.64-2 2.16 2.64 4.72 2.64 1.6 7.76 7.76 1.12-1.12z"></path>
<path d="M3.748 27.735l16.801-16.801 0.566 0.566-16.801 16.801-0.566-0.566z"></path>
</symbol>
<symbol id="icon-flag" viewBox="0 0 5 16">
  <polygon points="0,0 5,0 0,8 5,16 0,16" />
</symbol>
</defs>
</svg>

